<?xml version="1.0" standalone="no"?>
<!DOCTYPE svg PUBLIC "-//W3C//DTD SVG 20010904//EN"
 "http://www.w3.org/TR/2001/REC-SVG-20010904/DTD/svg10.dtd">
<svg version="1.0" xmlns="http://www.w3.org/2000/svg"
 width="800.000000pt" height="600.000000pt" viewBox="0 0 800.000000 600.000000"
 preserveAspectRatio="xMidYMid meet">

<g transform="translate(0.000000,600.000000) scale(0.100000,-0.100000)"
fill="#FF0000" stroke="none">
<path d="M3682 5529 c-160 -19 -246 -51 -446 -167 -187 -107 -278 -180 -361
-285 -124 -156 -225 -396 -260 -617 -4 -25 -9 -54 -11 -65 -14 -66 -21 -325
-13 -453 29 -457 151 -896 385 -1381 41 -85 73 -155 72 -157 -2 -1 -106 -52
-232 -113 l-228 -111 -28 20 c-36 26 -43 25 -119 -14 l-64 -33 58 -41 c32 -23
61 -42 65 -42 4 0 137 63 295 141 225 110 289 138 296 128 5 -8 7 -18 6 -24
-2 -5 -102 -67 -223 -137 l-218 -127 -37 21 -36 20 -67 -38 c-36 -22 -66 -41
-66 -44 0 -3 27 -22 61 -42 l60 -38 -27 -47 c-15 -27 -43 -74 -61 -107 -19
-32 -32 -60 -31 -62 2 -1 32 14 68 34 54 32 70 48 104 106 l41 69 249 143
c229 132 250 143 262 126 7 -9 12 -20 11 -24 -1 -4 -105 -77 -232 -163 -126
-86 -247 -168 -267 -183 -29 -21 -51 -54 -93 -140 l-55 -114 37 23 c77 47 99
70 132 136 l32 68 234 158 c128 86 237 157 242 157 4 0 30 -34 57 -75 27 -41
52 -75 57 -75 5 0 8 -4 6 -8 -3 -12 114 -171 224 -302 246 -295 515 -538 783
-706 43 -27 80 -48 82 -46 3 1 14 -7 26 -17 11 -11 25 -18 30 -15 4 3 8 0 8
-6 0 -6 4 -9 9 -6 5 4 11 2 13 -3 5 -14 153 -85 261 -125 206 -77 424 -111
612 -95 162 14 259 48 459 161 219 125 284 176 379 300 146 191 229 411 267
713 13 104 13 415 0 541 -88 825 -530 1734 -1159 2386 -446 463 -950 749
-1403 798 -109 11 -141 11 -246 -1z m390 -733 c194 -50 402 -155 601 -303 124
-94 386 -352 493 -488 333 -422 563 -918 655 -1415 26 -136 37 -463 20 -581
-58 -408 -260 -678 -568 -760 -100 -27 -284 -29 -391 -5 -399 89 -825 392
-1165 831 -79 102 -182 253 -176 259 2 2 74 51 160 109 l155 105 29 -46 c100
-158 309 -374 464 -481 467 -320 874 -233 1003 214 20 71 23 101 22 265 0 153
-4 203 -22 289 -141 649 -646 1277 -1137 1412 -107 29 -256 30 -336 1 -392
-140 -472 -713 -188 -1355 l48 -108 -165 -80 c-91 -43 -169 -79 -174 -79 -18
0 -155 308 -217 485 -102 296 -153 689 -124 944 32 275 115 468 265 616 107
106 205 158 356 191 96 20 271 12 392 -20z m280 -1186 c248 -76 497 -401 559
-728 18 -96 7 -237 -23 -304 -54 -117 -153 -171 -276 -150 -124 21 -261 108
-370 235 -85 99 -88 86 42 173 l115 77 31 -27 c62 -52 122 -47 147 11 45 109
-74 303 -187 303 -51 0 -70 -29 -70 -108 l0 -69 -117 -57 c-137 -67 -125 -72
-171 67 -76 229 -65 406 33 515 73 81 163 101 287 62z m-727 -999 c-136 -83
-185 -108 -192 -98 -3 6 -2 13 3 15 5 2 52 25 104 51 98 50 138 65 85 32z m90
-89 c-18 -15 -205 -142 -210 -142 -3 0 -5 6 -5 13 0 6 49 40 108 74 104 61
126 72 107 55z"/>
<path fill="#FFFFFF" d="M2152 2046 l-64 -32 62 -43 61 -43 65 28 c36 15 67 31 70 35 7 11
-94 89 -114 89 -10 -1 -45 -16 -80 -34z"/>
<path fill="#FFFFFF" d="M1878 1911 c-37 -19 -65 -38 -63 -41 3 -4 29 -24 60 -45 l55 -39 71
35 71 34 -37 31 c-76 64 -82 65 -157 25z"/>
<path fill="#FFFFFF" d="M2233 1891 c-34 -20 -63 -38 -63 -41 0 -3 27 -21 60 -39 33 -19 60
-38 60 -42 0 -4 -27 -54 -59 -110 -33 -57 -58 -105 -57 -107 2 -1 32 14 67 34
61 35 67 41 127 149 34 62 62 115 62 118 0 8 -116 77 -126 76 -5 -1 -37 -17
-71 -38z"/>
<path fill="#FFFFFF" d="M1963 1733 c-35 -21 -63 -40 -63 -43 0 -3 23 -18 51 -35 28 -16 55
-33 60 -36 6 -3 -18 -54 -51 -113 -34 -60 -60 -109 -58 -111 2 -2 32 14 68 36
60 36 69 46 124 141 32 57 60 108 63 114 4 11 -104 84 -123 84 -5 0 -37 -17
-71 -37z"/>
<path fill="#FFFFFF" d="M2446 1659 c-51 -36 -62 -52 -111 -150 -30 -60 -55 -111 -55 -114 0
-3 29 14 65 37 62 42 66 47 115 152 28 60 49 110 47 112 -2 2 -29 -14 -61 -37z"/>
<path fill="#FFFFFF" d="M2186 1483 c-54 -36 -62 -45 -112 -148 -29 -60 -51 -111 -49 -113 2
-2 30 14 62 36 55 37 63 48 111 147 29 59 51 109 49 111 -2 2 -30 -13 -61 -33z"/>
</g>
</svg>
